Coordinates
version=1
nRows=18
nColumns=26
inDegrees=yes

Units are S.I. units (second, meters, Newtons, ...)
Angles are in degrees.

endheader
time	pelvis_tilt	pelvis_list	pelvis_rotation	pelvis_tx	pelvis_ty	pelvis_tz	hip_flexion_r	hip_adduction_r	hip_rotation_r	knee_angle_r	knee_angle_r_beta	ankle_angle_r	subtalar_angle_r	mtp_angle_r	hip_flexion_l	hip_adduction_l	hip_rotation_l	knee_angle_l	knee_angle_l_beta	ankle_angle_l	subtalar_angle_l	mtp_angle_l	lumbar_extension	lumbar_bending	lumbar_rotation
     79.90979592	    -14.68769600	     -2.01091074	      5.42074121	      0.15628941	      0.90703999	      0.22571422	     33.74620537	      1.81414642	     -5.67463108	     10.54348286	     10.54348286	      4.74107712	      6.45977499	      0.00000000	      3.04890891	      0.57483656	      4.68599066	     67.07096911	     67.07096911	    -14.87193374	     -7.74024776	      0.00000000	      2.01292923	      2.70585062	    -10.35147297
     79.91979592	    -14.35477441	     -2.04521024	      4.46884481	      0.15555099	      0.89948026	      0.22648775	     33.54405075	      2.50109174	     -3.78591114	     13.02442431	     13.02442431	      4.37917730	      4.99685367	      0.00000000	      4.49829720	      0.35113804	      3.53662020	     72.81939152	     72.81939152	    -14.62104239	     -9.21911791	      0.00000000	      1.48585205	      3.03182899	     -8.99382436
     79.92979592	    -13.51369861	     -2.25130441	      3.71031836	      0.15513441	      0.89181306	      0.22713547	     32.95553244	      3.16388042	     -3.20160226	     16.13041545	     16.13041545	      2.86271175	      3.76147198	      0.00000000	      5.37986209	     -0.21930534	      2.56856436	     78.25991609	     78.25991609	    -14.07465493	    -10.52865814	      0.00000000	      0.38395379	      3.56204675	     -7.87858886
     79.93979592	    -14.40763650	     -2.98344497	      3.09685094	      0.15325058	      0.88125689	      0.22891836	     34.12514315	      4.71660903	     -0.99044315	     19.14673568	     19.14673568	      1.20128877	     -1.54602172	      0.00000000	      8.69977507	     -1.58863223	      1.90961945	     84.30077831	     84.30077831	    -13.10802964	    -11.12004167	      0.00000000	      1.30566935	      4.37056213	     -6.78565334
     79.94979592	    -15.21647538	     -4.09059535	      2.60600083	      0.15067660	      0.87045427	      0.23113528	     35.73724995	      6.85193990	     -0.00592397	     23.77405993	     23.77405993	      4.49006028	     -5.72285550	      0.00000000	     12.16367756	     -3.56152296	      1.65568307	     90.23930428	     90.23930428	    -11.87743950	    -11.38906691	      0.00000000	      1.97146267	      5.58108447	     -5.73765341
     79.95979592	    -16.22608824	     -4.60137919	      2.21092318	      0.14676205	      0.85922027	      0.23273277	     38.92769340	      8.06944515	     -0.34534940	     31.00223814	     31.00223814	      8.76075760	     -7.95589523	      0.00000000	     16.14836553	     -4.69761031	      1.72241903	     95.98258409	     95.98258409	    -10.82817907	    -11.75382883	      0.00000000	      2.63007560	      6.16520921	     -4.54917711
     79.96979592	    -16.48155330	     -5.11384609	      1.84474043	      0.14263540	      0.84984885	      0.23408607	     40.98072862	      9.21366115	     -0.24989649	     37.51336371	     37.51336371	     11.81765407	     -9.41423308	      0.00000000	     19.47457830	     -5.79387305	      2.06394190	    101.14563413	    101.14563413	     -9.69427139	    -11.76427964	      0.00000000	      2.21326886	      6.80613121	     -3.23679209
     79.97979592	    -16.10189937	     -5.49215162	      1.53681715	      0.13894181	      0.84292478	      0.23510596	     41.09776991	     10.06921858	      0.07558935	     41.98054454	     41.98054454	     15.01747277	     -9.42212950	      0.00000000	     22.16475923	     -6.53822389	      2.66704814	    105.48401250	    105.48401250	     -8.46650244	    -11.80048268	      0.00000000	      0.97381597	      7.30617653	     -1.88305995
     79.98979592	    -15.88836791	     -5.82549168	      1.15103988	      0.13547230	      0.83788261	      0.23602692	     40.19149953	     10.79989965	      0.38580314	     44.38030955	     44.38030955	     17.92978876	     -8.82095350	      0.00000000	     25.17945287	     -7.13435460	      3.35877475	    109.08006090	    109.08006090	     -7.29978398	    -11.61412791	      0.00000000	     -0.01948582	      7.70550786	     -0.45155476
     79.99979592	    -16.24603568	     -6.19601149	      0.90205962	      0.13193612	      0.83412132	      0.23579188	     39.19677081	     11.21013837	      0.17893716	     45.43213300	     45.43213300	     20.53986776	     -7.78150634	      0.00000000	     29.08567650	     -7.33671689	      4.44814629	    112.06856509	    112.06856509	     -5.95801189	    -10.77463786	      0.00000000	     -0.25085076	      8.35731342	      0.72618483
     80.00979592	    -16.00471106	     -6.23777731	      0.83919376	      0.12973137	      0.83282263	      0.23534697	     37.15494831	     11.38607150	      0.35127889	     45.91141066	     45.91141066	     22.09985032	     -7.85206876	      0.00000000	     32.17437697	     -7.08867179	      5.30156069	    113.96666176	    113.96666176	     -5.15160306	    -11.15377778	      0.00000000	     -0.92986934	      8.52998552	      2.00120905
     80.01979592	    -16.35293961	     -6.72422027	      0.91539893	      0.12793912	      0.83231749	      0.23477748	     35.38701346	     11.64810743	     -0.12760779	     45.70959644	     45.70959644	     24.04419872	     -6.03608729	      0.00000000	     35.96162857	     -7.16783856	      6.53349193	    115.23204002	    115.23204002	     -3.71342741	    -10.86753704	      0.00000000	     -0.65937699	      9.16083880	      3.29156272
     80.02979592	    -16.64700974	     -6.50735371	      0.94904996	      0.12672518	      0.83387717	      0.23435684	     33.07859840	     11.38445774	      0.14313704	     44.77405571	     44.77405571	     25.12573508	     -4.99563231	      0.00000000	     39.32317369	     -6.48917966	      7.06438652	    115.38723124	    115.38723124	     -2.58455460	    -11.24382494	      0.00000000	     -0.32520408	      8.80749679	      4.73453786
     80.03979592	    -17.07711114	     -6.07090905	      1.09004709	      0.12602055	      0.83697037	      0.23404166	     30.52489070	     10.90751540	      0.62407762	     43.05741460	     43.05741460	     25.21341006	     -4.50830547	      0.00000000	     42.58693520	     -5.50252142	      7.38293894	    114.63526049	    114.63526049	     -1.66193013	    -11.78967212	      0.00000000	      0.29999635	      8.07740997	      6.06891071
     80.04979592	    -17.42243015	     -5.32076095	      0.71464400	      0.12597701	      0.84169302	      0.23463530	     27.52529008	     10.45716139	      1.91564978	     40.72452519	     40.72452519	     25.02999610	     -3.83412890	      0.00000000	     45.22622738	     -4.70814607	      6.81129623	    112.90153162	    112.90153162	     -1.29565685	    -13.20988153	      0.00000000	      0.82459203	      6.91844176	      8.18209703
     80.05979592	    -18.17952434	     -4.63506299	      0.76268231	      0.12616267	      0.84700649	      0.23472503	     24.98237772	      9.67528722	      2.29151403	     38.09480428	     38.09480428	     23.73028397	     -3.05118165	      0.00000000	     48.09852769	     -3.60921897	      6.63793728	    110.51357276	    110.51357276	     -0.57740673	    -13.69111472	      0.00000000	      1.99226204	      5.79194939	      9.60144737
     80.06979592	    -17.63910523	     -3.14328415	      0.26771261	      0.12769124	      0.85550581	      0.23547892	     20.69116286	      8.53079465	      4.32608160	     34.87029694	     34.87029694	     21.04566431	     -3.90987560	      0.00000000	     48.66203050	     -2.34087081	      5.12676384	    106.89482987	    106.89482987	     -0.74908515	    -16.26434881	      0.00000000	      1.56004455	      3.73050122	     11.94278501
     80.07979592	    -18.66228741	     -2.30516189	      0.18681933	      0.12877278	      0.86223774	      0.23569057	     18.51816927	      7.45779019	      4.57677615	     32.01684502	     32.01684502	     18.04695177	     -2.76900431	      0.00000000	     50.97621380	     -1.32814852	      4.60361868	    103.09524198	    103.09524198	      0.09495425	    -16.71248009	      0.00000000	      3.19831319	      2.47982527	     13.51194319
